<svg xmlns="http://www.w3.org/2000/svg" xml:space="preserve" style="enable-background:new 0 0 42 34" viewBox="0 0 42 34"><path d="M4.3 33.7C2 33.7.1 31.8.1 29.5v-8.3h.4c2.1-.2 3.7-2 3.7-4.1C4.2 15 2.6 13.2.5 13H.1V4.5C.1 2.2 2 .3 4.3.3h33.3c1.1 0 2.1.4 2.9 1.2.8.8 1.2 1.8 1.2 2.9v8.3h-.4c-1.1.1-2.1.7-2.8 1.5-.7.9-1 2-.9 3.1.2 1.9 1.8 3.5 3.7 3.7h.4v8.3c0 1.1-.4 2.2-1.2 2.9-.8.8-1.8 1.2-2.9 1.2H4.3zM1.2 22.1v7.4c0 1.7 1.4 3.2 3.2 3.2h33.3c.9 0 1.7-.3 2.3-.9.6-.6.9-1.4.9-2.2v-7.4c-2.2-.4-3.9-2.3-4.1-4.5-.1-1.4.2-2.7 1.1-3.8.8-1 1.8-1.6 3-1.8V4.5c0-.9-.3-1.7-.9-2.3-.6-.6-1.4-1-2.2-.9H4.3c-1.7 0-3.2 1.4-3.2 3.2v7.4c2.4.5 4.2 2.6 4.2 5.1 0 2.5-1.7 4.6-4.1 5.1zm14 4.6-3.9-3.9L26.8 7.3l3.9 3.9-15.5 15.5zm-1.1-3.9 1.1 1.1L28 11.1 26.9 10 14.1 22.8zm-1.4 0 .1-.1-.1.1zm16-12.3.7.7-.7-.7zm-2.5 15.8c-1.1 0-2.2-.4-2.9-1.2-.8-.8-1.2-1.8-1.2-2.9 0-2.3 1.9-4.1 4.1-4.1 1.1 0 2.1.4 2.9 1.2s1.2 1.8 1.2 2.9c0 1.1-.4 2.1-1.2 2.9-.8.8-1.8 1.2-2.9 1.2zm-3.1-3.5c.1.6.4 1.1.8 1.6.6.6 1.4.9 2.2.9-1.4 0-2.7-1-3-2.5zm6.2-.6c0 1.5-1.1 2.8-2.5 3.1.6-.1 1.1-.4 1.6-.8.6-.7.9-1.4.9-2.3zm-3.1-2.1c-1.2 0-2.1 1-2.1 2.1 0 1.2 1 2.1 2.1 2.1.6 0 1.1-.2 1.5-.6.4-.4.6-.9.6-1.5s-.2-1.1-.6-1.5-.9-.6-1.5-.6zm-2.8.7c-.2.4-.3.9-.3 1.4 0-.5.1-1 .3-1.4zm3-1.7c1.6.1 2.9 1.4 2.9 3.1 0-.8-.3-1.6-.9-2.2-.5-.5-1.2-.9-2-.9zm-3 1.7zm-7.6-4.9c-2.3 0-4.1-1.9-4.1-4.1 0-1.1.4-2.1 1.2-2.9.8-.8 1.8-1.2 2.9-1.2 1.1 0 2.1.4 2.9 1.2s1.2 1.8 1.2 2.9c0 2.3-1.8 4.1-4.1 4.1zM13.6 14c.6.6 1.3.9 2.2.9-.9 0-1.6-.3-2.2-.9zm2.2-4.3c-1.2 0-2.1 1-2.1 2.1 0 1.2 1 2.1 2.1 2.1.6 0 1.1-.2 1.5-.6.4-.4.6-.9.6-1.5s-.2-1.1-.6-1.5c-.4-.4-.9-.6-1.5-.6zm3.1 2.1c0 .2 0 .5-.1.7.1-.2.1-.5.1-.7zm-4.8-2.6c-.2.1-.4.3-.5.4a3.102 3.102 0 0 1 0 0c.1-.2.3-.3.5-.4zm4.1.6c.5.6.7 1.3.7 2 0-.8-.2-1.5-.7-2zm0 0z" style="fill:#c9a236"></path></svg>