<svg xmlns="http://www.w3.org/2000/svg" xml:space="preserve" style="enable-background:new 0 0 41 41" viewBox="0 0 41 41"><path d="M39.2 40.8H1.7L.1 39.2V11.1l1.6-1.6h5c-.3-1.2-.3-2.5-.3-3.7v-.2l.1-.4c.1-.4.2-.7.3-1 .2-.6.5-1 .7-1.3.7-1 1.3-1.6 2.2-1.9.9-.6 1.9-.9 2.8-.9.9 0 1.9.3 2.8.6 1.9.6 3.5 1.8 5 4.1 1.5-2.2 3.1-3.5 5-4.1.9-.6 1.9-.6 2.8-.6.5 0 1 .2 1.4.4l.4.2c.3.2.7.3 1 .4.9.3 1.5.8 2.2 1.9.6.9.9 1.9 1.2 2.7v.2c0 1.1 0 2.4-.3 3.7h5l1.6 1.6v28.1l-1.4 1.5zm-37.1-1h36.7l1-1V11.5l-1-1h-5.9l.3-1.2c.3-1.1.3-2.2.3-3.3-.3-.8-.5-1.6-1.1-2.4-.6-.9-1-1.3-1.7-1.5-.4-.1-.7-.3-1.1-.4l-.4-.2c-.5-.2-.8-.3-1-.3-1 0-1.6 0-2.3.5l-.2.1c-1.8.5-3.2 1.7-4.5 3.7l-.8 1.2-.8-1.2c-1.3-2-2.8-3.2-4.4-3.7-.9-.3-1.8-.6-2.5-.6s-1.5.3-2.3.8h-.2c-.7.2-1.2.6-1.7 1.5l-.1.1c-.2.2-.4.5-.6 1-.1.3-.2.6-.3 1l-.1.3c0 1.1 0 2.2.3 3.3l.3 1.3H2.1l-1 1v27.3l1 1zm29.4-29.3H21V8.6c0-1.6.8-2.7 1.4-3.6.7-1.1 1.8-1.9 3-2.3.8-.4 1.6-.4 2.2-.4.7 0 1.5 0 2.4.4.8.4 1.2.8 1.8 1.4.4.4.5.8.6 1.1v.1c.1.2.1.4.2.6l.1.2v.3c0 .9 0 1.6-.3 2.6 0 .2 0 .4-.1.6-.2.2-.3.3-.3.4 0 .1-.1.1-.2.2l-.3.3zm-9.5-1h9.1l.2-.2.1-.1v-.4c.3-.9.3-1.5.3-2.4-.1-.3-.2-.5-.3-.8v-.1c-.1-.2-.1-.5-.3-.7-.6-.6-.9-.9-1.6-1.3-.6-.3-1.3-.3-1.8-.3-.6 0-1.3 0-1.9.3-1.1.4-2 1-2.5 1.9-.7 1-1.3 1.9-1.3 3.2v.9zm-2.1 1H8.5V9c-.3-1-.3-1.7-.3-2.6v-.3l.1-.2c.1-.1.1-.2.1-.4v-.1c0-.1.1-.3.1-.4.1-.3.3-.7.8-1 .5-.7 1.2-1.1 1.7-1.4.3-.2.6-.4 1.1-.4.4-.1.8 0 1.1 0 .6 0 1.4 0 2.2.4 1.2.4 2.2 1.2 2.9 2.2.6 1 1.4 2.1 1.4 3.7v2zm-10.4-1h9.4v-.9c0-1.3-.6-2.2-1.2-3.1-.6-.9-1.5-1.6-2.5-1.9-.7-.3-1.3-.3-1.9-.3h-.9c-.3 0-.5.1-.6.2l-.1.1c-.5.2-1.1.6-1.4 1.1l-.1.1-.2.1c-.2.1-.3.3-.5.6 0 .1-.1.2-.1.3l-.5-.1.5.2c-.1.2-.1.3-.2.5 0 .9 0 1.5.3 2.4v.7z" style="fill:#c9a236"></path></svg>