<svg xmlns="http://www.w3.org/2000/svg" xml:space="preserve" style="enable-background:new 0 0 45.4 41.4" viewBox="0 0 45.4 41.4"><path d="M20.1 41.4.1 15.6h12l.1.3 8.7 25-.8.5zm-18-24.8L19 38.4l-7.6-21.8H2.1zm23.3 24.8-.8-.4 8.9-25.3h12L25.4 41.4zm8.7-24.8-7.6 21.8 16.8-21.8h-9.2zM22.8 35.9l-7.2-20.3h14.3l-7.1 20.3zM17 16.6l5.8 16.3 5.8-16.3H17zm28.4-4.1H34.5l4.6-10.6 6.3 10.6zm-9.4-1h7.6l-4.4-7.4-3.2 7.4zm-7 1H16.5l6.2-8.3 6.3 8.3zm-10.5-1H27l-4.2-5.7-4.3 5.7zm-7.5 1H0L6.5 1.9 11 12.5zm-9.2-1h7.7L6.3 4l-4.5 7.5zm30-.5L23.5 0h12.9l-4.6 11zM25.5 1l6 8 3.4-8h-9.4zM13.8 11 9.1 0H22l-8.2 11zM10.6 1 14 9l6-8h-9.4z" style="fill:#c9a236"></path></svg>